<svg xmlns="http://www.w3.org/2000/svg" width="940" height="250" viewBox="0 0 940 250" font-family="Georgia, 'Times New Roman', serif">
  <rect width="940" height="250" fill="#f2ecdd" rx="10"/>
  <rect x="6" y="6" width="928" height="238" fill="none" stroke="#d5cab0" stroke-width="1.5" stroke-dasharray="6 8" rx="8"/>

  <text x="40" y="44" font-size="20" font-style="italic" fill="#2d2721">the symbols of the camp</text>

  <!-- the camp mark: tent on wheels, pennant, distant bird -->
  <g transform="translate(52, 62) scale(2.1)" fill="none" stroke="#4b6141" stroke-width="2.4" stroke-linecap="round" stroke-linejoin="round">
    <path d="M32 10.5 C32.2 8 32 5.5 32 3.2"/>
    <path d="M32 3.2 C34.8 3.6 37 4.4 39.2 5.6 C36.8 6.5 34.6 7.2 32.2 7.6" stroke-width="2"/>
    <path d="M32 10.5 C26 19.5 19.5 28.5 13.5 38.5 L26.5 38.3 L31.8 27.8 L37.3 38.4 L50.5 38.5 C44.5 28.6 38 19.4 32 10.5 Z"/>
    <path d="M31.8 27.8 C31.6 31.4 31.7 35 31.9 38.3" stroke-width="1.8"/>
    <circle cx="22.5" cy="43.5" r="3.7" stroke-width="2"/>
    <circle cx="41.5" cy="43.5" r="3.7" stroke-width="2"/>
    <path d="M7 50 C24 49.4 40 49.6 57 50" stroke-width="1.8" stroke-dasharray="4.5 5.5"/>
    <path d="M48 11 C49.5 9.2 51.5 9.2 52.5 10.6 C53.5 9 55.5 8.8 57 10.2" stroke-width="1.7"/>
  </g>
  <text x="119" y="205" font-size="12" letter-spacing="1.5" fill="#8a7f6a" text-anchor="middle" font-family="Consolas, monospace">THE CAMP MARK</text>

  <!-- bird · river -->
  <g transform="translate(260, 84) scale(2)" fill="none" stroke="#48707f" stroke-width="1.6" stroke-linecap="round" stroke-linejoin="round">
    <path d="M4.5 13.5 C4.5 9.5 9 8.2 11 10.2 C12.8 7.4 18 8.2 18 12 C18 15.2 13.4 16.8 9.8 15.8 L6 17.5 L7.6 15"/>
    <circle cx="15.2" cy="11" r="0.4" fill="#48707f" stroke="none"/>
    <path d="M18 12 L21.5 11"/>
    <path d="M10.3 16.4 L10.2 19.5 M12.8 16.2 L13.2 19.3"/>
  </g>
  <text x="284" y="165" font-size="12" fill="#8a7f6a" text-anchor="middle" font-family="Consolas, monospace">bird</text>

  <!-- cat · ink soft -->
  <g transform="translate(334, 84) scale(2)" fill="none" stroke="#5c5344" stroke-width="1.6" stroke-linecap="round" stroke-linejoin="round">
    <path d="M8.2 6.8 L6.8 3.4 L10.2 5"/>
    <path d="M15.8 6.8 L17.2 3.4 L13.8 5"/>
    <path d="M6.8 10.6 C6.8 6.9 9 5 12 5 C15 5 17.2 6.9 17.2 10.6 C17.2 13.4 15 15 12 15 C9 15 6.8 13.4 6.8 10.6 Z"/>
    <path d="M9.4 10.2 C9.9 10.9 10.6 10.9 11.1 10.2"/>
    <path d="M12.9 10.2 C13.4 10.9 14.1 10.9 14.6 10.2"/>
    <path d="M4.5 20.5 C9.5 16.8 14.5 16.8 19.5 20.5"/>
    <path d="M19.5 20.5 C21.6 19.7 21.8 17.6 20.6 16.2"/>
  </g>
  <text x="358" y="165" font-size="12" fill="#8a7f6a" text-anchor="middle" font-family="Consolas, monospace">cat</text>

  <!-- envelope · clay deep -->
  <g transform="translate(408, 84) scale(2)" fill="none" stroke="#8a4630" stroke-width="1.6" stroke-linecap="round" stroke-linejoin="round">
    <rect x="3" y="6" width="18" height="13" rx="1.5"/>
    <path d="M3.8 7.2 L12 13.6 L20.2 7.2"/>
  </g>
  <text x="432" y="165" font-size="12" fill="#8a7f6a" text-anchor="middle" font-family="Consolas, monospace">envelope</text>

  <!-- notebook · olive -->
  <g transform="translate(482, 84) scale(2)" fill="none" stroke="#7c7852" stroke-width="1.6" stroke-linecap="round" stroke-linejoin="round">
    <rect x="6" y="3.5" width="13" height="17" rx="1.5"/>
    <path d="M6 7.5 H4 M6 12 H4 M6 16.5 H4"/>
    <path d="M9.5 8.5 H16 M9.5 12 H16 M9.5 15.5 H13"/>
  </g>
  <text x="506" y="165" font-size="12" fill="#8a7f6a" text-anchor="middle" font-family="Consolas, monospace">notebook</text>

  <!-- pin · clay -->
  <g transform="translate(556, 84) scale(2)" fill="none" stroke="#a2543a" stroke-width="1.6" stroke-linecap="round" stroke-linejoin="round">
    <path d="M12 21 C7.5 15.5 5.5 12.6 5.5 9.5 A6.5 6.5 0 1 1 18.5 9.5 C18.5 12.6 16.5 15.5 12 21 Z"/>
    <circle cx="12" cy="9.5" r="2.2"/>
  </g>
  <text x="580" y="165" font-size="12" fill="#8a7f6a" text-anchor="middle" font-family="Consolas, monospace">pin</text>

  <!-- deer · ink faint (the ghost) -->
  <g transform="translate(630, 84) scale(2)" fill="none" stroke="#8a7f6a" stroke-width="1.6" stroke-linecap="round" stroke-linejoin="round">
    <path d="M9 9.5 C9 6.5 6.8 6.2 5.5 3.5 M9 9.5 C8.2 7.2 6.2 7.6 5.8 6"/>
    <path d="M15 9.5 C15 6.5 17.2 6.2 18.5 3.5 M15 9.5 C15.8 7.2 17.8 7.6 18.2 6"/>
    <path d="M9 9.5 C11 8.6 13 8.6 15 9.5 L13.7 16.5 C13.2 18.8 10.8 18.8 10.3 16.5 Z"/>
    <circle cx="10.8" cy="12.2" r="0.4" fill="#8a7f6a" stroke="none"/>
    <circle cx="13.2" cy="12.2" r="0.4" fill="#8a7f6a" stroke="none"/>
    <path d="M11.4 16.2 C11.8 16.6 12.2 16.6 12.6 16.2"/>
  </g>
  <text x="654" y="165" font-size="12" fill="#8a7f6a" text-anchor="middle" font-family="Consolas, monospace">deer</text>

  <!-- tent · moss -->
  <g transform="translate(704, 84) scale(2)" fill="none" stroke="#4b6141" stroke-width="1.6" stroke-linecap="round" stroke-linejoin="round">
    <path d="M12 4 C9.4 9 6.8 14 4.2 19.5 L9.8 19.4 L12 14.8 L14.2 19.4 L19.8 19.5 C17.2 14 14.6 9 12 4 Z"/>
    <path d="M12 14.8 L12 19.4" stroke-width="1.3"/>
  </g>
  <text x="728" y="165" font-size="12" fill="#8a7f6a" text-anchor="middle" font-family="Consolas, monospace">tent</text>

  <!-- sun · ochre -->
  <g transform="translate(778, 84) scale(2)" fill="none" stroke="#c2933d" stroke-width="1.6" stroke-linecap="round" stroke-linejoin="round">
    <circle cx="12" cy="12" r="3.6"/>
    <path d="M12 3.5 V5.6 M12 18.4 V20.5 M3.5 12 H5.6 M18.4 12 H20.5 M6 6 L7.5 7.5 M16.5 16.5 L18 18 M18 6 L16.5 7.5 M7.5 16.5 L6 18"/>
  </g>
  <text x="802" y="165" font-size="12" fill="#8a7f6a" text-anchor="middle" font-family="Consolas, monospace">sun</text>

  <!-- paw · blush -->
  <g transform="translate(852, 84) scale(2)" fill="none" stroke="#c4837a" stroke-width="1.6" stroke-linecap="round" stroke-linejoin="round">
    <ellipse cx="7.2" cy="8.6" rx="1.6" ry="2" transform="rotate(-18 7.2 8.6)"/>
    <ellipse cx="12" cy="7" rx="1.6" ry="2"/>
    <ellipse cx="16.8" cy="8.6" rx="1.6" ry="2" transform="rotate(18 16.8 8.6)"/>
    <path d="M8.2 15.4 C9 12.8 15 12.8 15.8 15.4 C17.2 17.6 15.6 19.8 12 19.8 C8.4 19.8 6.8 17.6 8.2 15.4 Z"/>
  </g>
  <text x="876" y="165" font-size="12" fill="#8a7f6a" text-anchor="middle" font-family="Consolas, monospace">paw</text>

  <text x="260" y="205" font-size="13" font-style="italic" fill="#5c5344">drawn in-house, monoline, slightly imperfect on purpose — colors follow the field-note categories</text>
</svg>
